<svg width="512" height="512" viewBox="0 0 512 512" fill="none" xmlns="http://www.w3.org/2000/svg">
<g clip-path="url(#clip0_104_6)">
<path d="M455.497 162.047C452.894 164.234 450.08 166.26 447.452 167.828C444.062 169.853 440.944 171.37 437.784 172.624L435.012 187.044C434.114 191.605 430.991 195.137 425.987 195.998C423.54 196.136 420.322 196.62 417.495 196.699L414.422 196.751C411.316 196.364 408.674 196.561 405.797 196.267C401.134 195.774 397.543 192.168 396.537 187.594L393.315 173.246C386.836 170.963 380.739 167.588 375.254 163.216L361.219 167.63C356.999 169.517 352.041 168.338 349.153 164.657C347.119 162.02 345.228 159.239 343.482 156.314C341.735 153.39 340.184 150.406 338.827 147.364C336.957 143.076 338.042 137.77 341.705 134.951L352.248 124.688C351.229 118.167 351.15 111.199 352.2 104.391L341.117 94.7831C337.571 91.7318 336.094 86.8522 337.872 82.5131C338.968 79.8234 340.209 77.1848 341.558 74.631L343.04 72.0099C344.453 69.5621 346.014 67.1706 347.686 64.8681C350.817 60.869 355.391 59.7692 359.848 61.1683L373.853 65.5591C376.451 63.3637 379.043 60.9651 382.433 58.9407C385.06 57.3719 388.401 56.2279 391.566 54.9819L394.343 40.5706C395.607 35.7554 398.745 32.2499 403.369 31.6183C406.571 31.0108 409.04 30.9959 411.875 30.9014L414.869 30.8614C417.776 30.8678 420.679 31.0317 423.562 31.3454C428.205 31.8509 431.804 35.4627 432.825 40.0222L436.026 54.3366C442.493 56.6561 448.598 60.0255 453.847 64.0211L467.912 59.5897C472.123 57.7077 477.322 59.2608 480.184 62.9568C482.224 65.5909 484.122 68.3673 485.868 71.2919C487.615 74.2165 489.159 77.2045 490.51 80.2497C492.406 84.5224 491.08 89.4543 487.426 92.2687L476.853 102.549C478.109 109.447 478.179 116.419 477.141 123.191L488.245 132.833C491.777 135.899 493.244 140.773 491.487 145.099C490.394 147.764 488.942 150.011 487.802 152.934L486.302 155.612C484.888 158.067 483.334 160.432 481.67 162.748C478.92 166.518 474.329 167.591 469.507 166.446L455.497 162.047ZM435.397 101.429C428.69 90.1972 413.756 86.7525 402.908 93.2304C391.297 100.164 388.009 114.489 394.715 125.721C401.422 136.953 415.594 140.854 427.205 133.92C438.053 127.442 442.104 112.661 435.397 101.429ZM368.799 328.008C366.612 325.404 364.586 322.589 362.789 319.579C360.992 316.57 359.475 313.451 358.22 310.29L343.801 307.516C339.012 306.235 335.48 303.112 334.846 298.488C334.48 295.66 334.223 292.823 334.144 289.995L334.091 286.922C334.478 283.816 334.28 281.174 334.574 278.297C335.066 273.633 338.671 270.043 343.244 269.037L357.591 265.818C359.872 259.338 363.245 253.241 367.616 247.757L363.201 233.719C361.313 229.499 362.491 224.54 366.171 221.653C368.808 219.619 371.588 217.729 374.512 215.983C377.436 214.237 380.419 212.685 383.461 211.329C387.748 209.459 393.053 210.546 395.873 214.209L406.137 224.755C412.657 223.737 419.624 223.659 426.411 224.724L436.05 213.621C439.104 210.072 443.975 208.601 448.314 210.38C450.987 211.486 454.007 212.5 456.204 214.063L458.817 215.55C461.269 216.961 463.417 218.151 465.961 220.197C469.73 222.948 470.805 227.539 469.66 232.362L465.264 246.372C467.451 248.976 469.477 251.791 471.274 254.8C473.071 257.81 474.588 260.928 475.843 264.089L490.262 266.864C494.823 267.763 498.355 270.886 499.217 275.891C499.584 278.72 499.84 281.556 499.919 284.384L499.989 287.39C500.322 290.065 499.783 293.205 499.489 296.083C498.997 300.747 495.392 304.337 490.819 305.342L476.472 308.562C474.191 315.042 470.818 321.138 466.828 326.395L471.244 340.433C473.132 344.653 471.572 349.839 467.892 352.726C465.255 354.761 462.475 356.651 459.551 358.397C456.627 360.143 453.644 361.694 450.602 363.05C446.315 364.92 441.391 363.606 438.571 359.942L428.308 349.397C421.406 350.643 414.439 350.721 407.652 349.656L398.013 360.759C394.959 364.308 390.088 365.778 385.749 364C383.077 362.893 380.845 361.466 377.926 360.333L375.246 358.829C372.794 357.418 370.191 355.465 368.103 354.183C364.105 351.05 363.031 346.459 364.403 342.017L368.799 328.008ZM429.18 307.535C440.41 300.829 444.079 286.276 437.372 275.044C430.666 263.812 416.113 260.139 404.883 266.845C393.653 273.55 389.984 288.104 396.691 299.336C403.398 310.568 417.95 314.24 429.18 307.535Z" fill="#FDB400"/>
</g>
<path d="M320.29 141.585C322.486 147.31 320.622 153.766 316.096 157.959L287.275 184.184C288.007 189.709 288.407 195.367 288.407 201.091C288.407 206.815 288.007 212.473 287.275 217.997L316.096 244.222C320.622 248.416 322.486 254.872 320.29 260.596C317.361 268.517 313.833 276.171 309.839 283.427L306.711 288.818C302.318 296.14 297.393 303.062 292.001 309.652C288.007 314.377 281.551 316.041 275.694 314.178L238.619 302.33C229.7 309.186 219.25 314.91 209.333 319.303L201.012 357.309C199.681 363.3 195.022 367.56 188.898 369.157C179.713 370.688 170.261 371.487 160.011 371.487C150.959 371.487 141.507 370.688 132.322 369.157C126.198 367.56 121.539 363.3 120.208 357.309L111.888 319.303C101.371 314.91 91.5199 309.186 82.6007 302.33L45.553 314.178C39.669 316.041 33.1793 314.377 29.2389 309.652C23.8408 303.062 18.9153 296.14 14.5223 288.818L11.4073 283.427C7.36701 276.171 3.85259 268.517 0.903949 260.596C-1.25262 254.872 0.564489 248.416 5.13056 244.222L33.9248 217.997C33.1926 212.473 32.8132 206.815 32.8132 201.091C32.8132 195.367 33.1926 189.709 33.9248 184.184L5.13056 157.959C0.564489 153.766 -1.25262 147.376 0.903949 141.585C3.85259 133.665 7.37366 126.01 11.4073 118.755L14.5156 113.364C18.9153 106.042 23.8408 99.1196 29.2389 92.5634C33.1793 87.8043 39.669 86.1536 45.553 88.0306L82.6007 99.8518C91.5199 92.9694 101.371 87.2452 111.888 82.8987L120.208 44.8925C121.539 38.8488 126.198 34.0497 132.322 33.0314C141.507 31.4945 150.959 30.6951 160.61 30.6951C170.261 30.6951 179.713 31.4945 188.898 33.0314C195.022 34.0497 199.681 38.8488 201.012 44.8925L209.333 82.8987C219.25 87.2452 229.7 92.9694 238.619 99.8518L275.694 88.0306C281.551 86.1536 288.007 87.8043 292.001 92.5634C297.393 99.1196 302.318 106.042 306.711 113.364L309.839 118.755C313.833 126.01 317.361 133.665 320.29 141.585ZM160.61 254.34C190.03 254.34 213.859 230.511 213.859 200.492C213.859 171.671 190.03 147.243 160.61 147.243C131.19 147.243 107.361 171.671 107.361 200.492C107.361 230.511 131.19 254.34 160.61 254.34Z" fill="#FDB400"/>
<defs>
<clipPath id="clip0_104_6">
<rect width="323" height="341" fill="white" transform="translate(189 31)"/>
</clipPath>
</defs>
</svg>
