<svg width="512" height="512" viewBox="0 0 512 512" fill="none" xmlns="http://www.w3.org/2000/svg">
<path d="M465 431L383.6 349.6C409.89 316.049 424.12 274.624 424 232C424 194.026 412.739 156.905 391.642 125.331C370.545 93.7564 340.559 69.1472 305.475 54.6152C270.392 40.0832 231.787 36.281 194.543 43.6893C157.298 51.0977 123.087 69.3839 96.2355 96.2356C69.3838 123.087 51.0976 157.298 43.6892 194.543C36.2809 231.787 40.0831 270.392 54.6151 305.475C69.1472 340.559 93.7563 370.545 125.331 391.642C156.905 412.739 194.026 424 232 424C274.624 424.121 316.049 409.89 349.6 383.6L431 465C435.529 469.47 441.636 471.977 448 471.977C454.364 471.977 460.471 469.47 465 465C467.237 462.77 469.013 460.121 470.224 457.204C471.435 454.286 472.059 451.159 472.059 448C472.059 444.841 471.435 441.714 470.224 438.796C469.013 435.879 467.237 433.23 465 431V431ZM88 232C88 203.52 96.4454 175.679 112.268 151.998C128.091 128.317 150.581 109.86 176.894 98.9614C203.206 88.0624 232.16 85.2107 260.093 90.767C288.026 96.3233 313.685 110.038 333.823 130.177C353.962 150.315 367.677 175.974 373.233 203.907C378.789 231.84 375.938 260.794 365.039 287.107C354.14 313.419 335.683 335.909 312.002 351.732C288.321 367.555 260.481 376 232 376C193.825 375.947 157.229 360.759 130.235 333.765C103.241 306.771 88.0529 270.175 88 232Z" fill="white"/>
</svg>
