<svg width="512" height="512" viewBox="0 0 512 512" fill="none" xmlns="http://www.w3.org/2000/svg">
<g clip-path="url(#clip0_121_9)">
<path d="M256 87.9356L233.056 64.3516C179.2 8.9916 80.448 28.0956 44.8 97.6956C28.064 130.432 24.288 177.696 54.848 238.016C84.288 296.096 145.536 365.664 256 441.44C366.464 365.664 427.68 296.096 457.152 238.016C487.712 177.664 483.968 130.432 467.2 97.6956C431.552 28.0956 332.8 8.9596 278.944 64.3196L256 87.9356ZM256 480C-234.656 155.776 104.928 -97.2804 250.368 36.5756C252.288 38.3356 254.176 40.1596 256 42.0476C257.805 40.1613 259.684 38.3466 261.632 36.6076C407.04 -97.3444 746.656 155.744 256 480Z" fill="#444A51"/>
</g>
<defs>
<clipPath id="clip0_121_9">
<rect width="512" height="512" fill="white"/>
</clipPath>
</defs>
</svg>
