<svg width="512" height="512" viewBox="0 0 512 512" fill="none" xmlns="http://www.w3.org/2000/svg">
<path d="M213.333 170.667V405.334C213.333 410.992 211.086 416.418 207.085 420.419C203.084 424.419 197.658 426.667 192 426.667H170.667C165.009 426.667 159.583 424.419 155.582 420.419C151.581 416.418 149.333 410.992 149.333 405.334V298.667M384 170.667C400.974 170.667 417.253 177.41 429.255 189.412C441.257 201.414 448 217.693 448 234.667C448 251.641 441.257 267.92 429.255 279.922C417.253 291.924 400.974 298.667 384 298.667V170.667Z" stroke="#444A51" stroke-width="42.6667" stroke-linecap="round" stroke-linejoin="round"/>
<path d="M256 170.667L352.512 90.2402C355.316 87.9044 358.728 86.4162 362.348 85.9502C365.968 85.4841 369.646 86.0594 372.95 87.6087C376.255 89.158 379.049 91.6171 381.006 94.6978C382.963 97.7785 384.002 101.353 384 105.003V364.331C384.002 367.981 382.963 371.555 381.006 374.636C379.049 377.717 376.255 380.176 372.95 381.725C369.646 383.274 365.968 383.85 362.348 383.384C358.728 382.917 355.316 381.429 352.512 379.094L256 298.667H85.3333C79.6754 298.667 74.2492 296.419 70.2484 292.418C66.2476 288.418 64 282.991 64 277.334V192C64 186.342 66.2476 180.916 70.2484 176.915C74.2492 172.914 79.6754 170.667 85.3333 170.667H256Z" stroke="#444A51" stroke-width="42.6667" stroke-linecap="round" stroke-linejoin="round"/>
</svg>
