<svg width="512" height="512" viewBox="0 0 512 512" fill="none" xmlns="http://www.w3.org/2000/svg">
<g clip-path="url(#clip0_104_2)">
<path d="M256 159.1C202.98 159.1 160.9 202.08 160.9 254.2C160.9 306.32 202.1 351.1 256 351.1C309.9 351.1 351.1 308.12 351.1 256C351.1 203.88 309 159.1 256 159.1ZM509.3 347L446.1 255.1L509.25 164.09C515.582 154.965 510.354 142.35 499.424 140.37L390.424 120.67L370.724 11.6699C368.749 0.739944 356.134 -4.49006 347.004 1.84594L256 65.8899L164.1 2.73594C154.975 -3.59606 142.36 1.62894 140.38 12.5599L121.6 121.6L12.56 141.3C1.63299 143.2 -3.59601 155.9 2.73599 164.1L65.89 256L2.73999 347.01C-3.59201 356.135 1.63499 368.75 12.564 370.73L121.564 390.43L141.264 499.43C143.239 510.36 155.854 515.59 164.984 509.254L256 446.1L347.01 509.25C356.137 515.584 368.76 510.357 370.73 499.428L390.43 390.428L499.43 370.728C510.4 368.8 515.6 356.1 509.3 347ZM256 383.1C185.31 383.1 128.9 325.79 128.9 256C128.9 185.31 186.21 128.9 256 128.9C325.79 128.9 383.1 186.2 383.1 256C383.1 326.7 326.7 383.1 256 383.1Z" fill="#FDB400"/>
</g>
<defs>
<clipPath id="clip0_104_2">
<rect width="512" height="512" fill="white"/>
</clipPath>
</defs>
</svg>
